<?xml version="1.0" encoding="utf-8"?>
<!-- Generator: Adobe Illustrator 18.0.0, SVG Export Plug-In . SVG Version: 6.00 Build 0)  -->
<!DOCTYPE svg PUBLIC "-//W3C//DTD SVG 1.1//EN" "http://www.w3.org/Graphics/SVG/1.1/DTD/svg11.dtd">
<svg version="1.1" id="Layer_1" xmlns="http://www.w3.org/2000/svg" xmlns:xlink="http://www.w3.org/1999/xlink" x="0px" y="0px"
	 viewBox="0 0 64 64" enable-background="new 0 0 64 64" xml:space="preserve">
<g>
	<g>
		<g>
			<path fill="#FF6A4D" d="M32,0c17.7,0,32,14.3,32,32S49.7,64,32,64S0,49.7,0,32S14.3,0,32,0z"/>
		</g>
	</g>
	<g>
		<g>
			<path fill="#FFB133" d="M51,23v9H13V19c0-1.1,0.9-2,2-2h12.3c0.5,0,0.9,0.1,1.2,0.4l3.9,3.1c0.4,0.3,0.8,0.4,1.2,0.4H49
				C50.1,21,51,21.9,51,23z"/>
		</g>
	</g>
	<g>
		<g>
			<path fill="#FFFFFF" d="M45.9,41.2H18.1c-1.1,0-2-0.9-2-2V26c0-1.1,0.9-2,2-2h27.8c1.1,0,2,0.9,2,2v13.2
				C47.9,40.3,47,41.2,45.9,41.2z"/>
		</g>
	</g>
	<g>
		<g>
			<path fill="#FFD731" d="M51,29.3V45c0,1.1-0.9,2-2,2H15c-1.1,0-2-0.9-2-2V29.3c0-1.3,1.1-2.3,2.4-2.3h33.1
				C49.9,27,51,28.1,51,29.3z"/>
		</g>
	</g>
</g>
</svg>
